<svg width="128" height="126" viewBox="0 0 128 126" fill="none" xmlns="http://www.w3.org/2000/svg">
<path fill-rule="evenodd" clip-rule="evenodd" d="M72.1041 11.8848L40.3414 64.1449L37.4069 62.3663L69.1695 10.1062L72.1041 11.8848Z" fill="white"/>
<path fill-rule="evenodd" clip-rule="evenodd" d="M28.4622 81.0997C30.516 81.0997 32.181 79.437 32.181 77.386C32.181 75.335 30.516 73.6723 28.4622 73.6723C26.4083 73.6723 24.7433 75.335 24.7433 77.386C24.7433 79.437 26.4083 81.0997 28.4622 81.0997ZM28.4622 84.5276C32.4119 84.5276 35.6138 81.3302 35.6138 77.386C35.6138 73.4418 32.4119 70.2444 28.4622 70.2444C24.5125 70.2444 21.3106 73.4418 21.3106 77.386C21.3106 81.3302 24.5125 84.5276 28.4622 84.5276Z" fill="white"/>
<path fill-rule="evenodd" clip-rule="evenodd" d="M42.7654 102.81C44.8193 102.81 46.4842 101.148 46.4842 99.0966C46.4842 97.0456 44.8193 95.3829 42.7654 95.3829C40.7116 95.3829 39.0466 97.0456 39.0466 99.0966C39.0466 101.148 40.7116 102.81 42.7654 102.81ZM42.7654 106.238C46.7151 106.238 49.917 103.041 49.917 99.0966C49.917 95.1524 46.7151 91.955 42.7654 91.955C38.8157 91.955 35.6138 95.1524 35.6138 99.0966C35.6138 103.041 38.8157 106.238 42.7654 106.238Z" fill="white"/>
<path fill-rule="evenodd" clip-rule="evenodd" d="M76.8272 105.261C70.2129 103.93 66.2402 103.867 59.6704 105.258C56.5327 105.922 54.3528 107.588 51.9747 109.405C51.7488 109.577 51.5211 109.751 51.2906 109.926C48.6728 111.909 45.741 113.915 41.3336 113.859C37.0098 113.804 34.186 111.663 31.6971 109.67C31.5825 109.578 31.4685 109.487 31.3552 109.396C28.9625 107.476 26.8395 105.773 23.6775 105.271C23.0879 105.178 22.5184 105.084 21.9668 104.993C16.5167 104.094 12.8127 103.482 8.72198 106.445C7.5072 107.325 6.54566 108.75 5.8082 110.535C5.07512 112.31 4.60723 114.336 4.31509 116.282C4.02396 118.221 3.9138 120.036 3.877 121.369C3.86924 121.651 3.86476 121.91 3.86251 122.143H102.626C102.541 122.06 102.455 121.975 102.367 121.888C100.726 120.272 98.4017 118.09 95.6668 115.827C90.1406 111.255 83.1517 106.534 76.8272 105.261ZM106.002 123.572C107.06 122.611 107.06 122.61 107.06 122.61L107.056 122.606L107.046 122.595L107.01 122.556C106.979 122.521 106.932 122.472 106.872 122.407C106.751 122.277 106.574 122.089 106.345 121.849C105.886 121.369 105.218 120.684 104.376 119.854C102.693 118.196 100.306 115.955 97.4919 113.627C91.9208 109.018 84.4634 103.884 77.3924 102.461C70.4271 101.059 66.0589 100.986 59.0772 102.463C55.2752 103.268 52.5961 105.324 50.2653 107.112C50.0274 107.295 49.7931 107.475 49.5616 107.65C47.0235 109.573 44.7571 111.045 41.3698 111.002C38.1002 110.961 35.949 109.413 33.4864 107.441C33.3403 107.324 33.193 107.206 33.0443 107.086C30.7323 105.225 28.0613 103.074 24.1262 102.45C23.5351 102.356 22.9496 102.258 22.3687 102.16C17.0615 101.264 12.1478 100.435 7.04242 104.133C5.23851 105.439 4.01131 107.394 3.16365 109.446C2.31163 111.509 1.79805 113.78 1.48606 115.858C1.17305 117.943 1.05641 119.879 1.01744 121.291C0.997921 121.998 0.997804 122.577 1.00267 122.983C1.00511 123.185 1.0088 123.345 1.01194 123.455C1.01352 123.51 1.01496 123.553 1.01604 123.583L1.01736 123.618L1.01777 123.628L1.01795 123.633C1.01795 123.633 1.01799 123.633 2.44698 123.572L1.01799 123.633L1.07715 125H109.237L107.06 122.611L106.002 123.572Z" fill="white"/>
<path fill-rule="evenodd" clip-rule="evenodd" d="M33.8365 61.2048L53.8353 73.3259L55.3196 70.8838L34.7853 58.4383C34.5813 59.4088 34.2598 60.3361 33.8365 61.2048ZM29.4092 45.794L54.4798 4.54453C54.8896 3.87017 55.7693 3.65529 56.4446 4.06458L123.451 44.676C124.126 45.0853 124.341 45.9638 123.931 46.6381L95.4338 93.5257C95.0239 94.2001 94.1442 94.4149 93.4689 94.0056L74.8833 82.7412L73.3991 85.1832L91.9847 96.4477C94.0106 97.6756 96.6497 97.0309 97.8792 95.0079L126.377 48.1203C127.606 46.0972 126.961 43.4618 124.935 42.2339L57.9289 1.62252C55.903 0.394651 53.2639 1.03929 52.0343 3.06236L26.8073 44.5691C27.7291 44.874 28.6015 45.2873 29.4092 45.794ZM67.5469 78.2947L62.656 75.3303L61.1718 77.7724L66.0627 80.7367L67.5469 78.2947ZM77.0442 41.8622C76.933 39.9344 76.2229 38.9988 75.5834 38.6435C74.944 38.2883 73.7734 38.1792 72.0746 39.1015C70.4122 40.0041 68.6244 41.7338 67.2726 44.1604C65.9209 46.587 65.392 49.0161 65.5007 50.9025C65.6118 52.8303 66.3219 53.7659 66.9614 54.1212C67.6009 54.4764 68.7714 54.5855 70.4703 53.6631C72.1326 52.7606 73.9205 51.0309 75.2722 48.6043C76.624 46.1777 77.1529 43.7486 77.0442 41.8622ZM77.7721 49.993C80.9211 44.3402 80.5638 38.1412 76.9741 36.1471C73.3844 34.153 67.9217 37.1189 64.7728 42.7717C61.6238 48.4244 61.9811 54.6234 65.5708 56.6175C69.1604 58.6116 74.6232 55.6457 77.7721 49.993Z" fill="white"/>
<path fill-rule="evenodd" clip-rule="evenodd" d="M32.9537 47.896C31.8965 46.9977 30.273 46.1082 27.5705 44.847L28.7817 42.259C31.4698 43.5135 33.4221 44.5431 34.8076 45.7205C36.2747 46.9671 37.0706 48.3443 37.5658 50.1576L37.5893 50.2434L37.6019 50.3314C37.7685 51.4965 37.7371 53.2829 37.5833 55.2334C37.4268 57.2169 37.1343 59.4798 36.7344 61.6475L33.9211 61.13C34.3032 59.0584 34.5828 56.8934 34.7315 55.0091C34.8777 53.1554 34.8888 51.6716 34.7815 50.821C34.4199 49.5421 33.9076 48.7066 32.9537 47.896Z" fill="white"/>
<path fill-rule="evenodd" clip-rule="evenodd" d="M72.1041 11.8848L40.3414 64.1449L37.4069 62.3663L69.1695 10.1062L72.1041 11.8848Z" stroke="white"/>
<path fill-rule="evenodd" clip-rule="evenodd" d="M28.4622 81.0997C30.516 81.0997 32.181 79.437 32.181 77.386C32.181 75.335 30.516 73.6723 28.4622 73.6723C26.4083 73.6723 24.7433 75.335 24.7433 77.386C24.7433 79.437 26.4083 81.0997 28.4622 81.0997ZM28.4622 84.5276C32.4119 84.5276 35.6138 81.3302 35.6138 77.386C35.6138 73.4418 32.4119 70.2444 28.4622 70.2444C24.5125 70.2444 21.3106 73.4418 21.3106 77.386C21.3106 81.3302 24.5125 84.5276 28.4622 84.5276Z" stroke="white"/>
<path fill-rule="evenodd" clip-rule="evenodd" d="M42.7654 102.81C44.8193 102.81 46.4842 101.148 46.4842 99.0966C46.4842 97.0456 44.8193 95.3829 42.7654 95.3829C40.7116 95.3829 39.0466 97.0456 39.0466 99.0966C39.0466 101.148 40.7116 102.81 42.7654 102.81ZM42.7654 106.238C46.7151 106.238 49.917 103.041 49.917 99.0966C49.917 95.1524 46.7151 91.955 42.7654 91.955C38.8157 91.955 35.6138 95.1524 35.6138 99.0966C35.6138 103.041 38.8157 106.238 42.7654 106.238Z" stroke="white"/>
<path fill-rule="evenodd" clip-rule="evenodd" d="M76.8272 105.261C70.2129 103.93 66.2402 103.867 59.6704 105.258C56.5327 105.922 54.3528 107.588 51.9747 109.405C51.7488 109.577 51.5211 109.751 51.2906 109.926C48.6728 111.909 45.741 113.915 41.3336 113.859C37.0098 113.804 34.186 111.663 31.6971 109.67C31.5825 109.578 31.4685 109.487 31.3552 109.396C28.9625 107.476 26.8395 105.773 23.6775 105.271C23.0879 105.178 22.5184 105.084 21.9668 104.993C16.5167 104.094 12.8127 103.482 8.72198 106.445C7.5072 107.325 6.54566 108.75 5.8082 110.535C5.07512 112.31 4.60723 114.336 4.31509 116.282C4.02396 118.221 3.9138 120.036 3.877 121.369C3.86924 121.651 3.86476 121.91 3.86251 122.143H102.626C102.541 122.06 102.455 121.975 102.367 121.888C100.726 120.272 98.4017 118.09 95.6668 115.827C90.1406 111.255 83.1517 106.534 76.8272 105.261ZM106.002 123.572C107.06 122.611 107.06 122.61 107.06 122.61L107.056 122.606L107.046 122.595L107.01 122.556C106.979 122.521 106.932 122.472 106.872 122.407C106.751 122.277 106.574 122.089 106.345 121.849C105.886 121.369 105.218 120.684 104.376 119.854C102.693 118.196 100.306 115.955 97.4919 113.627C91.9208 109.018 84.4634 103.884 77.3924 102.461C70.4271 101.059 66.0589 100.986 59.0772 102.463C55.2752 103.268 52.5961 105.324 50.2653 107.112C50.0274 107.295 49.7931 107.475 49.5616 107.65C47.0235 109.573 44.7571 111.045 41.3698 111.002C38.1002 110.961 35.949 109.413 33.4864 107.441C33.3403 107.324 33.193 107.206 33.0443 107.086C30.7323 105.225 28.0613 103.074 24.1262 102.45C23.5351 102.356 22.9496 102.258 22.3687 102.16C17.0615 101.264 12.1478 100.435 7.04242 104.133C5.23851 105.439 4.01131 107.394 3.16365 109.446C2.31163 111.509 1.79805 113.78 1.48606 115.858C1.17305 117.943 1.05641 119.879 1.01744 121.291C0.997921 121.998 0.997804 122.577 1.00267 122.983C1.00511 123.185 1.0088 123.345 1.01194 123.455C1.01352 123.51 1.01496 123.553 1.01604 123.583L1.01736 123.618L1.01777 123.628L1.01795 123.633C1.01795 123.633 1.01799 123.633 2.44698 123.572L1.01799 123.633L1.07715 125H109.237L107.06 122.611L106.002 123.572Z" stroke="white"/>
<path fill-rule="evenodd" clip-rule="evenodd" d="M33.8365 61.2048L53.8353 73.3259L55.3196 70.8838L34.7853 58.4383C34.5813 59.4088 34.2598 60.3361 33.8365 61.2048ZM29.4092 45.794L54.4798 4.54453C54.8896 3.87017 55.7693 3.65529 56.4446 4.06458L123.451 44.676C124.126 45.0853 124.341 45.9638 123.931 46.6381L95.4338 93.5257C95.0239 94.2001 94.1442 94.4149 93.4689 94.0056L74.8833 82.7412L73.3991 85.1832L91.9847 96.4477C94.0106 97.6756 96.6497 97.0309 97.8792 95.0079L126.377 48.1203C127.606 46.0972 126.961 43.4618 124.935 42.2339L57.9289 1.62252C55.903 0.394651 53.2639 1.03929 52.0343 3.06236L26.8073 44.5691C27.7291 44.874 28.6015 45.2873 29.4092 45.794ZM67.5469 78.2947L62.656 75.3303L61.1718 77.7724L66.0627 80.7367L67.5469 78.2947ZM77.0442 41.8622C76.933 39.9344 76.2229 38.9988 75.5834 38.6435C74.944 38.2883 73.7734 38.1792 72.0746 39.1015C70.4122 40.0041 68.6244 41.7338 67.2726 44.1604C65.9209 46.587 65.392 49.0161 65.5007 50.9025C65.6118 52.8303 66.3219 53.7659 66.9614 54.1212C67.6009 54.4764 68.7714 54.5855 70.4703 53.6631C72.1326 52.7606 73.9205 51.0309 75.2722 48.6043C76.624 46.1777 77.1529 43.7486 77.0442 41.8622ZM77.7721 49.993C80.9211 44.3402 80.5638 38.1412 76.9741 36.1471C73.3844 34.153 67.9217 37.1189 64.7728 42.7717C61.6238 48.4244 61.9811 54.6234 65.5708 56.6175C69.1604 58.6116 74.6232 55.6457 77.7721 49.993Z" stroke="white"/>
<path fill-rule="evenodd" clip-rule="evenodd" d="M32.9537 47.896C31.8965 46.9977 30.273 46.1082 27.5705 44.847L28.7817 42.259C31.4698 43.5135 33.4221 44.5431 34.8076 45.7205C36.2747 46.9671 37.0706 48.3443 37.5658 50.1576L37.5893 50.2434L37.6019 50.3314C37.7685 51.4965 37.7371 53.2829 37.5833 55.2334C37.4268 57.2169 37.1343 59.4798 36.7344 61.6475L33.9211 61.13C34.3032 59.0584 34.5828 56.8934 34.7315 55.0091C34.8777 53.1554 34.8888 51.6716 34.7815 50.821C34.4199 49.5421 33.9076 48.7066 32.9537 47.896Z" stroke="white"/>
</svg>
